<?xml version="1.0" encoding="utf-8"?>
<!-- Generator: Adobe Illustrator 24.3.0, SVG Export Plug-In . SVG Version: 6.00 Build 0)  -->
<svg version="1.1" id="Capa_1" xmlns="http://www.w3.org/2000/svg" xmlns:xlink="http://www.w3.org/1999/xlink" x="0px" y="0px"
	 viewBox="0 0 256 74.4" style="enable-background:new 0 0 256 74.4;" xml:space="preserve">
<style type="text/css">
	.st0{fill:#622BF2;}
	.st1{fill:#1C1C1B;}
</style>
<g>
	<path class="st0" d="M189.1,20.4c3.2-3.2,9.6-9.6,9.6-9.6c1.5-1.5,4-1.5,5.5,0c1.5,1.5,1.5,4,0,5.5l-7.5,7.5
		c-0.9,0.9-0.9,2.3,0,3.2c0.9,0.9,2.3,0.9,3.2,0l22.7-22.7c1.5-1.5,4-1.5,5.5,0c1.5,1.5,1.5,4,0,5.5L211.9,26
		c-0.9,0.9-0.9,2.3,0,3.2c0.9,0.9,2.3,0.9,3.2,0l21.7-21.7c1.5-1.5,4-1.5,5.5,0c1.5,1.5,1.5,4,0,5.5l-21.7,21.7
		c-0.9,0.9-0.9,2.3,0,3.2c0.9,0.9,2.3,0.9,3.2,0l17.7-17.7c1.5-1.5,4-1.5,5.5,0c1.5,1.5,1.5,4,0,5.5l-19.1,19
		c-0.9,0.9-0.9,2.3,0,3.2c0.9,0.9,2.3,0.9,3.2,0l8.1-8.1c1.5-1.5,4-1.5,5.5,0c1.5,1.5,1.5,4,0,5.5l-15.4,15.4
		c-12.5,12.5-28.3,8.6-38.5-1.6C180.5,48.7,177.9,31.6,189.1,20.4"/>
</g>
<path class="st1" d="M35.2,24v33.5h-8.8V44.8H12.2v12.6H3.4V24h8.8v12.4h14.1V24H35.2z"/>
<path class="st1" d="M66.3,31.8v25.6h-7.6L58,54.6c-1.7,2.3-4,3.5-7.1,3.5c-3.3,0-6.2-1.2-8.5-3.7c-2.4-2.5-3.6-5.7-3.6-9.7
	c0-3.8,1.3-7,3.8-9.6c2.5-2.6,5.4-3.9,8.8-3.9c3,0,5.2,1.3,6.8,3.5l0.5-3H66.3z M56.5,48.7c0.9-1,1.4-2.3,1.4-4c0-1.7-0.5-3.1-1.4-4
	c-0.9-1-2.2-1.4-4-1.4c-1.5,0-2.9,0.4-4,1.3c-1.1,0.8-1.6,2.2-1.6,4.2c0,1.9,0.5,3.3,1.6,4.2c1.1,0.8,2.4,1.3,4,1.3
	C54.3,50.1,55.6,49.6,56.5,48.7z"/>
<path class="st1" d="M98.3,57.4h-8.6V43.6c0-1.3-0.4-2.3-1.1-2.9c-0.7-0.6-1.8-0.9-3.3-0.9c-2.6,0-4.5,1.1-5.7,3.2v14.4h-8.6V31.8
	H79l0.7,3c2-2.3,4.9-3.7,8.7-3.7c3.1,0,5.5,0.9,7.3,2.7c1.8,1.8,2.7,4.1,2.7,7V57.4z"/>
<path class="st1" d="M160.9,31.8c0,0-7.2,18.8-9.9,25.6c-3.2,8.2-7.9,9.4-14.9,9.4l-0.8-8.2c4.6,0,5.8-0.4,6.4-1.2l-10.6-25.7h9
	l6.2,17.3l6.1-17.3H160.9z"/>
<path class="st1" d="M128.7,24v33.5h-7.6l-0.6-2.9c-1.7,2.3-4,3.5-7.1,3.5c-3.3,0-6.2-1.2-8.5-3.7c-2.4-2.5-3.6-5.7-3.6-9.7
	c0-3.8,1.3-7,3.8-9.6c2.5-2.6,5.4-3.9,8.8-3.9c3,0,5.8,1.3,7.4,3.5V24H128.7z M119,48.7c0.9-1,1.4-2.3,1.4-4c0-1.7-0.5-3.1-1.4-4
	c-0.9-1-2.2-1.4-4-1.4c-1.5,0-2.9,0.4-4,1.3c-1.1,0.8-1.6,2.2-1.6,4.2c0,1.9,0.5,3.3,1.6,4.2c1.1,0.8,2.4,1.3,4,1.3
	C116.8,50.1,118.1,49.6,119,48.7z"/>
</svg>
